<?xml version="1.0" encoding="UTF-8"?>
<svg width="1280px" height="700px" viewBox="0 0 1280 700" version="1.1" xmlns="http://www.w3.org/2000/svg" xmlns:xlink="http://www.w3.org/1999/xlink">
    <!-- Generator: Sketch 52 (66869) - http://www.bohemiancoding.com/sketch -->
    <title>Group@3x</title>
    <desc>Created with Sketch.</desc>
    <defs>
        <linearGradient x1="52.1599474%" y1="100%" x2="52.1599474%" y2="20.8497665%" id="linearGradient-1">
        <stop stop-color="#1B2E4F" offset="0%"></stop>
        <stop stop-color="#6EC1E4" offset="100%"></stop>
        </linearGradient>

        <rect id="path-2" x="0" y="0" width="1280" height="700"></rect>
    </defs>
    <g id="Page-1" stroke="none" stroke-width="1" fill="none" fill-rule="evenodd">
        <g id="IDO-背景纯色渐变">
            <g id="Group">
                <mask id="mask-3" fill="white">
                    <use xlink:href="#path-2"></use>
                </mask>
                <use id="Rectangle" fill="url(#linearGradient-1)" xlink:href="#path-2"></use>
                <g id="Group-3" mask="url(#mask-3)" opacity="0.1">
                    <g transform="translate(-168.000000, -97.000000)">
                        <g id="Group-4" transform="translate(911.000000, 355.000000)">
                            <path d="M502,1004 C224.753056,1004 0,779.246944 0,502 C0,224.753056 224.753056,0 502,0 C779.246944,0 1004,224.753056 1004,502 C1004,779.246944 779.246944,1004 502,1004 Z M502,1000 C777.037805,1000 1000,777.037805 1000,502 C1000,226.962195 777.037805,4 502,4 C226.962195,4 4,226.962195 4,502 C4,777.037805 226.962195,1000 502,1000 Z M502,954 C252.367293,954 50,751.632707 50,502 C50,252.367293 252.367293,50 502,50 C751.632707,50 954,252.367293 954,502 C954,751.632707 751.632707,954 502,954 Z M502,950 C749.423568,950 950,749.423568 950,502 C950,254.576432 749.423568,54 502,54 C254.576432,54 54,254.576432 54,502 C54,749.423568 254.576432,950 502,950 Z M502,904 C279.981531,904 100,724.018469 100,502 C100,279.981531 279.981531,100 502,100 C724.018469,100 904,279.981531 904,502 C904,724.018469 724.018469,904 502,904 Z M502,900 C721.80933,900 900,721.80933 900,502 C900,282.19067 721.80933,104 502,104 C282.19067,104 104,282.19067 104,502 C104,721.80933 282.19067,900 502,900 Z M502,854 C307.595768,854 150,696.404232 150,502 C150,307.595768 307.595768,150 502,150 C696.404232,150 854,307.595768 854,502 C854,696.404232 696.404232,854 502,854 Z M502,850 C694.195093,850 850,694.195093 850,502 C850,309.804907 694.195093,154 502,154 C309.804907,154 154,309.804907 154,502 C154,694.195093 309.804907,850 502,850 Z M502,804 C335.210006,804 200,668.789994 200,502 C200,335.210006 335.210006,200 502,200 C668.789994,200 804,335.210006 804,502 C804,668.789994 668.789994,804 502,804 Z M502,800 C666.580855,800 800,666.580855 800,502 C800,337.419145 666.580855,204 502,204 C337.419145,204 204,337.419145 204,502 C204,666.580855 337.419145,800 502,800 Z M502,754 C362.824243,754 250,641.175757 250,502 C250,362.824243 362.824243,250 502,250 C641.175757,250 754,362.824243 754,502 C754,641.175757 641.175757,754 502,754 Z M502,750 C638.966618,750 750,638.966618 750,502 C750,365.033382 638.966618,254 502,254 C365.033382,254 254,365.033382 254,502 C254,638.966618 365.033382,750 502,750 Z" id="Combined-Shape" fill="#FFFFFF" fill-rule="nonzero"></path>
                        </g>
                        <g id="Group-4-Copy" transform="translate(370.000000, 0.000000)">
                            <path d="M500,1002 C222.753056,1002 -2,777.246944 -2,500 C-2,222.753056 222.753056,-2 500,-2 C777.246944,-2 1002,222.753056 1002,500 C1002,777.246944 777.246944,1002 500,1002 Z M500,998 C775.037805,998 998,775.037805 998,500 C998,224.962195 775.037805,2 500,2 C224.962195,2 2,224.962195 2,500 C2,775.037805 224.962195,998 500,998 Z M500,952 C250.367293,952 48,749.632707 48,500 C48,250.367293 250.367293,48 500,48 C749.632707,48 952,250.367293 952,500 C952,749.632707 749.632707,952 500,952 Z M500,948 C747.423568,948 948,747.423568 948,500 C948,252.576432 747.423568,52 500,52 C252.576432,52 52,252.576432 52,500 C52,747.423568 252.576432,948 500,948 Z M500,902 C277.981531,902 98,722.018469 98,500 C98,277.981531 277.981531,98 500,98 C722.018469,98 902,277.981531 902,500 C902,722.018469 722.018469,902 500,902 Z M500,898 C719.80933,898 898,719.80933 898,500 C898,280.19067 719.80933,102 500,102 C280.19067,102 102,280.19067 102,500 C102,719.80933 280.19067,898 500,898 Z M500,852 C305.595768,852 148,694.404232 148,500 C148,305.595768 305.595768,148 500,148 C694.404232,148 852,305.595768 852,500 C852,694.404232 694.404232,852 500,852 Z M500,848 C692.195093,848 848,692.195093 848,500 C848,307.804907 692.195093,152 500,152 C307.804907,152 152,307.804907 152,500 C152,692.195093 307.804907,848 500,848 Z M500,802 C333.210006,802 198,666.789994 198,500 C198,333.210006 333.210006,198 500,198 C666.789994,198 802,333.210006 802,500 C802,666.789994 666.789994,802 500,802 Z M500,798 C664.580855,798 798,664.580855 798,500 C798,335.419145 664.580855,202 500,202 C335.419145,202 202,335.419145 202,500 C202,664.580855 335.419145,798 500,798 Z M500,752 C360.824243,752 248,639.175757 248,500 C248,360.824243 360.824243,248 500,248 C639.175757,248 752,360.824243 752,500 C752,639.175757 639.175757,752 500,752 Z M500,748 C636.966618,748 748,636.966618 748,500 C748,363.033382 636.966618,252 500,252 C363.033382,252 252,363.033382 252,500 C252,636.966618 363.033382,748 500,748 Z" id="Combined-Shape" fill="#FFFFFF" fill-rule="nonzero"></path>
                        </g>
                        <g id="Group-4" transform="translate(0.000000, 471.000000)">
                            <path d="M500,1002 C222.753056,1002 -2,777.246944 -2,500 C-2,222.753056 222.753056,-2 500,-2 C777.246944,-2 1002,222.753056 1002,500 C1002,777.246944 777.246944,1002 500,1002 Z M500,998 C775.037805,998 998,775.037805 998,500 C998,224.962195 775.037805,2 500,2 C224.962195,2 2,224.962195 2,500 C2,775.037805 224.962195,998 500,998 Z M500,952 C250.367293,952 48,749.632707 48,500 C48,250.367293 250.367293,48 500,48 C749.632707,48 952,250.367293 952,500 C952,749.632707 749.632707,952 500,952 Z M500,948 C747.423568,948 948,747.423568 948,500 C948,252.576432 747.423568,52 500,52 C252.576432,52 52,252.576432 52,500 C52,747.423568 252.576432,948 500,948 Z M500,902 C277.981531,902 98,722.018469 98,500 C98,277.981531 277.981531,98 500,98 C722.018469,98 902,277.981531 902,500 C902,722.018469 722.018469,902 500,902 Z M500,898 C719.80933,898 898,719.80933 898,500 C898,280.19067 719.80933,102 500,102 C280.19067,102 102,280.19067 102,500 C102,719.80933 280.19067,898 500,898 Z M500,852 C305.595768,852 148,694.404232 148,500 C148,305.595768 305.595768,148 500,148 C694.404232,148 852,305.595768 852,500 C852,694.404232 694.404232,852 500,852 Z M500,848 C692.195093,848 848,692.195093 848,500 C848,307.804907 692.195093,152 500,152 C307.804907,152 152,307.804907 152,500 C152,692.195093 307.804907,848 500,848 Z M500,802 C333.210006,802 198,666.789994 198,500 C198,333.210006 333.210006,198 500,198 C666.789994,198 802,333.210006 802,500 C802,666.789994 666.789994,802 500,802 Z M500,798 C664.580855,798 798,664.580855 798,500 C798,335.419145 664.580855,202 500,202 C335.419145,202 202,335.419145 202,500 C202,664.580855 335.419145,798 500,798 Z M500,752 C360.824243,752 248,639.175757 248,500 C248,360.824243 360.824243,248 500,248 C639.175757,248 752,360.824243 752,500 C752,639.175757 639.175757,752 500,752 Z M500,748 C636.966618,748 748,636.966618 748,500 C748,363.033382 636.966618,252 500,252 C363.033382,252 252,363.033382 252,500 C252,636.966618 363.033382,748 500,748 Z" id="Combined-Shape" fill="#FFFFFF" fill-rule="nonzero"></path>
                        </g>
                    </g>
                </g>
            </g>
        </g>
    </g>
</svg>