<?xml version="1.0" encoding="UTF-8"?>
<svg width="30px" height="30px" viewBox="0 0 30 30" version="1.1" xmlns="http://www.w3.org/2000/svg" xmlns:xlink="http://www.w3.org/1999/xlink">
    <!-- Generator: Sketch 52 (66869) - http://www.bohemiancoding.com/sketch -->
    <title>bond</title>
    <desc>Created with Sketch.</desc>
    <g id="Page-1" stroke="none" stroke-width="1" fill="none" fill-rule="evenodd">
        <g id="IDO-背景纯色渐变-Copy-4" transform="translate(-37.000000, -407.000000)">
            <g id="Group-18">
                <g id="Group-65" transform="translate(37.000000, 407.000000)">
                    <rect id="Rectangle-Copy-2" stroke="#979797" fill="#D8D8D8" opacity="0" x="0.5" y="0.5" width="29" height="29"></rect>
                    <g id="Group-7" transform="translate(3.000000, 4.000000)" stroke="#FFFFFF" stroke-width="2">
                        <path d="M18.4388,7.4507 L19.4258,6.4627 C20.1388,5.7497 20.1388,4.5827 19.4258,3.8697 L18.1298,2.5737 C17.4178,1.8607 16.2508,1.8607 15.5378,2.5737 L14.5498,3.5607 C14.2908,3.4367 14.0238,3.3267 13.7508,3.2287 L13.7508,1.8337 C13.7508,0.8247 12.9248,-0.0003 11.9168,-0.0003 L10.0838,-0.0003 C9.0758,-0.0003 8.2508,0.8247 8.2508,1.8337 L8.2508,3.2287 C7.9758,3.3267 7.7098,3.4367 7.4508,3.5607 L6.4628,2.5737 C5.7498,1.8607 4.5838,1.8607 3.8708,2.5737 L2.5738,3.8697 C1.8608,4.5827 1.8608,5.7497 2.5738,6.4627 L3.5608,7.4507 C3.4368,7.7107 3.3268,7.9757 3.2298,8.2497 L1.8338,8.2497 C0.8258,8.2497 0.0008,9.0747 0.0008,10.0837 L0.0008,11.9167 C0.0008,12.9257 0.8258,13.7497 1.8338,13.7497 L3.2298,13.7497 C3.3268,14.0237 3.4368,14.2897 3.5608,14.5497 L2.5738,15.5377 C1.8608,16.2507 1.8608,17.4167 2.5738,18.1307 L3.8708,19.4267 C4.5838,20.1387 5.7498,20.1387 6.4628,19.4267 L7.4508,18.4387 C7.7098,18.5627 7.9758,18.6737 8.2508,18.7697 L8.2508,20.1667 C8.2508,21.1757 9.0758,21.9997 10.0838,21.9997 L11.9168,21.9997" id="Stroke-1" stroke-linecap="round"></path>
                        <path d="M14.6663,10.9995 C14.6663,13.0245 13.0243,14.6665 11.0003,14.6665 C8.9753,14.6665 7.3333,13.0245 7.3333,10.9995 C7.3333,8.9755 8.9753,7.3335 11.0003,7.3335 C13.0243,7.3335 14.6663,8.9755 14.6663,10.9995 Z" id="Stroke-3" stroke-linecap="round"></path>
                        <polyline id="Stroke-5" points="15.1761 16.5503 18.0041 19.3783 23.6611 13.7213"></polyline>
                    </g>
                </g>
            </g>
        </g>
    </g>
</svg>