<?xml version="1.0" encoding="UTF-8"?>
<svg width="30px" height="30px" viewBox="0 0 30 30" version="1.1" xmlns="http://www.w3.org/2000/svg" xmlns:xlink="http://www.w3.org/1999/xlink">
    <!-- Generator: Sketch 52 (66869) - http://www.bohemiancoding.com/sketch -->
    <title>Rectangle</title>
    <desc>Created with Sketch.</desc>
    <g id="Page-1" stroke="none" stroke-width="1" fill="none" fill-rule="evenodd">
        <g id="IDO-背景纯色渐变-Copy-4" transform="translate(-32.000000, -617.000000)">
            <g id="Group-22" transform="translate(32.000000, 617.000000)">
                <rect id="Rectangle" stroke="#979797" fill="#D8D8D8" opacity="0" x="0.5" y="0.5" width="29" height="29"></rect>
                <g id="Group-25" transform="translate(4.000000, 4.000000)">
                    <path d="M10.5066,1.139 L0.5606,7.231 C-0.2534,7.729 0.1006,8.982 1.0536,8.982 L20.9456,8.982 C21.9006,8.982 22.2536,7.729 21.4396,7.231 L11.4936,1.139 C11.1916,0.953 10.8096,0.953 10.5066,1.139" id="Fill-1"></path>
                    <path d="M10.5066,1.139 L0.5606,7.231 C-0.2534,7.729 0.1006,8.982 1.0536,8.982 L20.9456,8.982 C21.9006,8.982 22.2536,7.729 21.4396,7.231 L11.4936,1.139 C11.1916,0.953 10.8096,0.953 10.5066,1.139 Z" id="Stroke-3" stroke="#FFFFFF" stroke-width="2"></path>
                    <g id="Group-8" transform="translate(3.000000, 9.000900)">
                        <path d="M0.0251,0.0189 L0.0251,9.4789" id="Fill-5" fill="#FEFEFE"></path>
                        <path d="M0.0251,0.0189 L0.0251,9.4789" id="Stroke-7" stroke="#FFFFFF" stroke-width="2"></path>
                    </g>
                    <g id="Group-12" transform="translate(19.000000, 9.000900)">
                        <path d="M0.0251,0.0189 L0.0251,9.4789" id="Fill-9" fill="#FEFEFE"></path>
                        <path d="M0.0251,0.0189 L0.0251,9.4789" id="Stroke-11" stroke="#FFFFFF" stroke-width="2"></path>
                    </g>
                    <g id="Group-16" transform="translate(6.000000, 9.000900)">
                        <path d="M0.74,0.0189 L0.74,9.4789" id="Fill-13" fill="#FEFEFE"></path>
                        <path d="M0.74,0.0189 L0.74,9.4789" id="Stroke-15" stroke="#FFFFFF" stroke-width="2"></path>
                    </g>
                    <g id="Group-20" transform="translate(15.000000, 9.000900)">
                        <path d="M0.2605,0.0189 L0.2605,9.4789" id="Fill-17" fill="#FEFEFE"></path>
                        <path d="M0.2605,0.0189 L0.2605,9.4789" id="Stroke-19" stroke="#FFFFFF" stroke-width="2"></path>
                    </g>
                    <path d="M21.2029,21.0013 L0.7969,21.0013 C0.3569,21.0013 -0.0001,20.6443 -0.0001,20.2043 L-0.0001,18.6423 C-0.0001,18.2013 0.3569,17.8453 0.7969,17.8453 L21.2029,17.8453 C21.6429,17.8453 21.9999,18.2013 21.9999,18.6423 L21.9999,20.2043 C21.9999,20.6443 21.6429,21.0013 21.2029,21.0013" id="Fill-21"></path>
                    <path d="M21.2029,21.0013 L0.7969,21.0013 C0.3569,21.0013 -0.0001,20.6443 -0.0001,20.2043 L-0.0001,18.6423 C-0.0001,18.2013 0.3569,17.8453 0.7969,17.8453 L21.2029,17.8453 C21.6429,17.8453 21.9999,18.2013 21.9999,18.6423 L21.9999,20.2043 C21.9999,20.6443 21.6429,21.0013 21.2029,21.0013 Z" id="Stroke-23" stroke="#FFFFFF" stroke-width="2"></path>
                </g>
            </g>
        </g>
    </g>
</svg>