<svg xmlns="http://www.w3.org/2000/svg" xmlns:xlink="http://www.w3.org/1999/xlink" width="500" zoomAndPan="magnify" viewBox="0 0 375 374.999991" height="500" preserveAspectRatio="xMidYMid meet" version="1.0"><defs><clipPath id="e99a833eeb"><path d="M 48 90 L 283 90 L 283 325 L 48 325 Z M 48 90 " clip-rule="nonzero"/></clipPath><clipPath id="7c5dd41ea8"><path d="M 88.652344 89.8125 L 283.351562 284.511719 L 185.46875 382.394531 L -9.230469 187.695312 Z M 88.652344 89.8125 " clip-rule="nonzero"/></clipPath><clipPath id="a81c8dbf57"><path d="M 88.652344 89.8125 L 283.351562 284.511719 L 185.46875 382.394531 L -9.230469 187.695312 Z M 88.652344 89.8125 " clip-rule="nonzero"/></clipPath><clipPath id="3092677c75"><path d="M 96 46 L 282 46 L 282 178 L 96 178 Z M 96 46 " clip-rule="nonzero"/></clipPath><clipPath id="5a92cb49cc"><path d="M 188.6875 -7.925781 L 281.246094 84.636719 L 188.6875 177.199219 L 96.125 84.636719 Z M 188.6875 -7.925781 " clip-rule="nonzero"/></clipPath><clipPath id="ea91761e45"><path d="M 188.6875 -7.925781 L 281.246094 84.636719 L 188.6875 177.199219 L 96.125 84.636719 Z M 188.6875 -7.925781 " clip-rule="nonzero"/></clipPath><clipPath id="2a92e56d5d"><path d="M 249 89 L 330 89 L 330 277 L 249 277 Z M 249 89 " clip-rule="nonzero"/></clipPath><clipPath id="648c14a67b"><path d="M 291.199219 89.804688 L 384.828125 183.433594 L 291.199219 277.058594 L 197.574219 183.433594 Z M 291.199219 89.804688 " clip-rule="nonzero"/></clipPath><clipPath id="0e3ed3ca23"><path d="M 384.691406 183.300781 L 291.066406 89.671875 L 197.441406 183.300781 L 291.066406 276.925781 Z M 384.691406 183.300781 " clip-rule="nonzero"/></clipPath></defs><g clip-path="url(#e99a833eeb)"><g clip-path="url(#7c5dd41ea8)"><g clip-path="url(#a81c8dbf57)"><path fill="#1649ff" d="M 88.511719 284.449219 C 142.171875 338.109375 229.273438 338.304688 282.695312 284.882812 L 241.746094 243.9375 C 210.808594 274.875 160.351562 274.761719 129.273438 243.683594 C 98.195312 212.605469 98.105469 162.128906 129.042969 131.191406 L 88.097656 90.246094 C 34.675781 143.664062 34.851562 230.789062 88.511719 284.449219 Z M 88.511719 284.449219 " fill-opacity="1" fill-rule="nonzero"/></g></g></g><g clip-path="url(#3092677c75)"><g clip-path="url(#5a92cb49cc)"><g clip-path="url(#ea91761e45)"><path fill="#ffffff" d="M 281.246094 84.636719 C 230.128906 33.515625 147.246094 33.515625 96.125 84.632812 L 188.6875 177.195312 Z M 281.246094 84.636719 " fill-opacity="1" fill-rule="nonzero"/></g></g></g><g clip-path="url(#2a92e56d5d)"><g clip-path="url(#648c14a67b)"><g clip-path="url(#0e3ed3ca23)"><path fill="#ffffff" d="M 249.375 131.363281 L 291.066406 89.671875 C 342.777344 141.382812 342.777344 225.21875 291.066406 276.925781 L 249.375 235.234375 C 278.058594 206.550781 278.058594 160.046875 249.375 131.363281 Z M 249.375 131.363281 " fill-opacity="1" fill-rule="nonzero"/></g></g></g></svg>