<?xml version="1.0" standalone="no"?><!DOCTYPE svg PUBLIC "-//W3C//DTD SVG 1.1//EN" "http://www.w3.org/Graphics/SVG/1.1/DTD/svg11.dtd"><svg t="1636882461818" class="icon" viewBox="0 0 1024 1024" version="1.1" xmlns="http://www.w3.org/2000/svg" p-id="4230" xmlns:xlink="http://www.w3.org/1999/xlink" width="24" height="24"><defs><style type="text/css"></style></defs><path d="M904.96 273.792H938.666667V174.208h-319.146667l-106.069333 391.125333h-2.901334L405.461333 174.208H85.333333v99.584h32.768a38.229333 38.229333 0 0 1 31.232 29.610667v419.413333a35.84 35.84 0 0 1-31.232 27.392H85.333333v99.584h256v-99.584H277.333333V309.333333h3.754667l147.498667 540.458667h115.712L693.76 309.333333h3.114667v440.874667h-64v99.584H938.666667v-99.584h-33.749334a35.84 35.84 0 0 1-30.250666-27.349333v-419.413334a38.314667 38.314667 0 0 1 30.293333-29.653333z" p-id="4231" fill="#ffffff"></path></svg>